<svg xmlns="http://www.w3.org/2000/svg" xmlns:xlink="http://www.w3.org/1999/xlink" fill="none" version="1.1" width="188" height="28" viewBox="0 0 188 28"><defs><clipPath id="master_svg0_45_1565"><rect x="0" y="0" width="188" height="28" rx="0"/></clipPath></defs><g clip-path="url(#master_svg0_45_1565)"><g><path d="M93.29500280761718,3.652060031890869L86.35600280761719,9.304950031890868L90.88760280761718,9.304950031890868L90.88760280761718,27.679960031890868L93.29500280761718,25.741060031890868L93.29500280761718,3.652060031890869Z" fill="#2B9939" fill-opacity="1"/></g><g><path d="M95.29499816894531,24.099651999092103L102.35599816894532,18.3049519990921L97.69749816894532,18.3049519990921L97.69749816894532,0.35005199909210205L95.29499816894531,2.022751999092102L95.29499816894531,24.099651999092103Z" fill="#2B9939" fill-opacity="1"/></g><g><path d="M182.695005859375,6.952952006578445C183.495005859375,7.3689520065784455,184.071005859375,7.720952006578446,184.423005859375,8.008952006578445L186.919005859375,3.2569520065784454C185.671005859375,2.4889520065784456,184.167005859375,1.8009520065784455,182.407005859375,1.1929500065784455C180.679005859375,0.5849550065784455,178.807005859375,0.28095200657844543,176.791005859375,0.28095200657844543C174.871005859375,0.28095200657844543,173.095005859375,0.6009520065784455,171.462995859375,1.2409500065784456C169.863005859375,1.8809520065784455,168.582995859375,2.8249520065784455,167.623005859375,4.072952006578445C166.695005859375,5.3209520065784455,166.231005859375,6.872952006578445,166.231005859375,8.728952006578446C166.231005859375,10.808952006578446,166.886995859375,12.408952006578446,168.199005859375,13.528952006578445C169.542995859375,14.616952006578446,171.591005859375,15.512952006578445,174.343005859375,16.216952006578445C176.551005859375,16.792952006578446,178.327005859375,17.320952006578445,179.671005859375,17.800952006578445C181.047005859375,18.248952006578445,181.735005859375,19.000952006578444,181.735005859375,20.056952006578445C181.735005859375,21.624952006578447,180.263005859375,22.408952006578446,177.319005859375,22.408952006578446C175.847005859375,22.408952006578446,174.455005859375,22.232952006578447,173.143005859375,21.880952006578447C171.830995859375,21.528952006578447,170.678995859375,21.096952006578444,169.686995859375,20.584952006578444C168.727005859375,20.072952006578447,168.039005859375,19.608952006578445,167.623005859375,19.192952006578444L165.031005859375,24.232952006578447C166.695005859375,25.288952006578445,168.598995859375,26.120952006578445,170.74299585937501,26.728952006578446C172.886995859375,27.336952006578446,175.047005859375,27.640952006578445,177.223005859375,27.640952006578445C179.111005859375,27.640952006578445,180.871005859375,27.384952006578445,182.503005859375,26.872952006578444C184.13500585937498,26.328952006578444,185.447005859375,25.464952006578446,186.43900585937502,24.280952006578445C187.463005859375,23.064952006578444,187.975005859375,21.464852006578447,187.975005859375,19.480852006578445C187.975005859375,17.848852006578447,187.591005859375,16.536952006578446,186.823005859375,15.544952006578445C186.087005859375,14.520952006578446,185.015005859375,13.704952006578445,183.607005859375,13.096952006578446C182.231005859375,12.488952006578446,180.599005859375,11.944952006578445,178.711005859375,11.464952006578445C176.567005859375,10.952952006578446,174.934995859375,10.488952006578446,173.815005859375,10.073002006578445C172.727005859375,9.656952006578445,172.182995859375,8.952952006578446,172.182995859375,7.960952006578445C172.182995859375,6.264952006578445,173.686995859375,5.4169520065784456,176.695005859375,5.4169520065784456C177.815005859375,5.4169520065784456,178.903005859375,5.576952006578446,179.959005859375,5.896952006578445C181.015005859375,6.184952006578445,181.92700585937502,6.536952006578446,182.695005859375,6.952952006578445Z" fill="#2B9939" fill-opacity="1"/></g><g><path d="M0,27.304954005002976L11.712,0.47295400500297546L16.464,0.47295400500297546L28.128,27.304954005002976L21.984,27.304954005002976L19.296,21.016954005002976L8.88,21.016954005002976L6.192,27.304954005002976L0,27.304954005002976ZM14.112,7.5289540050029755L10.176,15.976954005002975L17.904,15.976954005002975L14.112,7.5289540050029755Z" fill-rule="evenodd" fill="#2B9939" fill-opacity="1"/></g><g><path d="M50.82109979248047,0.47295400500297546L58.21309979248047,9.976954005002975L65.60509979248047,0.47295400500297546L71.89309979248047,0.47295400500297546L61.285099792480466,14.056954005002975L71.55709979248047,27.304954005002976L65.26909979248046,27.304954005002976L58.21309979248047,18.184954005002975L51.20509979248047,27.304954005002976L44.82109879248047,27.304954005002976L55.14109979248047,14.056954005002975L44.48509979248047,0.47295400500297546L50.82109979248047,0.47295400500297546Z" fill="#2B9939" fill-opacity="1"/></g><g style="mix-blend-mode:passthrough"><ellipse cx="133.69351196289062" cy="13.780943870544434" rx="13.5" ry="13.499999046325684" fill="#2B9939" fill-opacity="1"/></g><g style="mix-blend-mode:passthrough"><path d="M127.2938232421875,20.534081347656247L140.0932232421875,20.534081347656247L140.0932232421875,7.46588134765625L137.7269232421875,7.46588134765625L137.7269232421875,18.167881347656248L129.7138732421875,18.167881347656248L129.7138732421875,7.46588134765625L127.2938232421875,7.46588134765625L127.2938232421875,20.534081347656247Z" fill="#FFFFFF" fill-opacity="1"/></g></g></svg>